# xmcd CD database file
#
# Track frame offsets:
#	150
#	22500
#	74037
#	153825
#	196771
#	289105
#
# Disc length: 4434 seconds
#
# Revision: 0
# Processed by: cddbd v1.5.2PL0 Copyright (c) Steve Scherf et al.
# Submitted via: CDex 1.70beta2
#
DISCID=46115006
DTITLE=Gregg Bendian - Espiritu (with Alex Cline)
DYEAR=1998
DGENRE=Jazz
TTITLE0=Breakthrough
TTITLE1=Temper The Trajectory
TTITLE2=Emerald Need Not Elaborate
TTITLE3=Taproot
TTITLE4=To The Door
TTITLE5=Embers
EXTD=YEAR: 1998
EXTT0=
EXTT1=
EXTT2=
EXTT3=
EXTT4=
EXTT5=
PLAYORDER=
